# xmcd
#
# Track frame offsets:
#	150
#	15159
#	35157
#	55863
#	71174
#	85842
#	101557
#	115678
#	133462
#	146593
#	162835
#	181685
#	208224
#	237278
#	258074
#	276902
#	288152
#
# Disc length: 4264 seconds
#
# Revision: 0
# Processed by: cddbd v1.4PL0 Copyright (c) Steve Scherf et al.
# Submitted via: audiograbber 1.81.02
#
DISCID=f210a611
DTITLE=Dj Maurice - Renesse Summer 2002 cd2
DYEAR=1900
DGENRE=Pop
TTITLE0=Have you ever been mellow 2001
TTITLE1=Without you 2002
TTITLE2=Because the night 2002
TTITLE3=Wahnsinn 2002
TTITLE4=Like a prayer 2001
TTITLE5=Moonlight Shadow 2002
TTITLE6=Alone 2002
TTITLE7=Wheels 2002
TTITLE8=U got 2 know 2002
TTITLE9=Self control 2002
TTITLE10=Tetris 2001
TTITLE11=Forever 2002
TTITLE12=Music 2002
TTITLE13=Cold as ice 2003
TTITLE14=Dreamer 2002
TTITLE15=I just died 2002
TTITLE16=Final countdown 1999 and bonustrack
EXTD=
EXTT0=
EXTT1=
EXTT2=
EXTT3=
EXTT4=
EXTT5=
EXTT6=
EXTT7=
EXTT8=
EXTT9=
EXTT10=
EXTT11=
EXTT12=
EXTT13=
EXTT14=
EXTT15=
EXTT16=
PLAYORDER=
